{"title":"Black Hawk Down BRRIP-mattyboi1995","uid":5713926,"size":2338964889,"categoryP":"video","categoryS":"movies","magnet":"?xt=urn:btih:9989eb122d4f3dd617995777c0663eb16830621d&amp;dn=Black+Hawk+Down+BRRIP-mattyboi1995&amp;tr=udp%3A%2F%2Ftracker.openbittorrent.com%3A80&amp;tr=udp%3A%2F%2Fopen.demonii.com%3A1337&amp;tr=udp%3A%2F%2Ftracker.coppersurfer.tk%3A6969&amp;tr=udp%3A%2F%2Fexodus.desync.com%3A6969","seeders":0,"leechers":1,"uploader":"neon","files":2,"time":1280010426,"description":"IMDB Link: http://www.imdb.com/title/tt0265086/\n\nDescription:\n\nPlot: 123 elite U.S. soldiers drop into Somalia to capture two top lieutenants of a renegade warlord and find themselves in a desperate battle with a large force of heavily-armed Somalis.\n\nGeneral\nName: Black Hawk Down BRRIP-mattyboi1995\nSource: Black Hawk Down 1080p BDRip[ x264 - dts - mkv ] (thanks)\nSize: 2.17 GB\nRuntime: 2h 24mn\nVideo: H.264/MPEG-4 AVC\nResolution: 1280 x 720\nBitrate: 2000 Kbps\nAudio: AAC-LC\nChannels: 6 (5.1 surround sound)\n\n\n\nVideo\nID : 1\nFormat : AVC\nFormat/Info : Advanced Video Codec\nFormat profile : &lt;a class=&quot;__cf_email__&quot; href=&quot;/cdn-cgi/l/email-protection&quot; data-cfemail=&quot;a9e1c0cec1e9e59d8799&quot;&gt;[email&amp;#160;protected]&lt;/a&gt;&lt;script cf-hash='f9e31' type=&quot;text/javascript&quot;&gt;\n/* &lt;![CDATA[ */!function(){try{var t=&quot;currentScript&quot;in document?document.currentScript:function(){for(var t=document.getElementsByTagName(&quot;script&quot;),e=t.length;e--;)if(t[e].getAttribute(&quot;cf-hash&quot;))return t[e]}();if(t&amp;&amp;t.previousSibling){var e,r,n,i,c=t.previousSibling,a=c.getAttribute(&quot;data-cfemail&quot;);if(a){for(e=&quot;&quot;,r=parseInt(a.substr(0,2),16),n=2;a.length-n;n+=2)i=parseInt(a.substr(n,2),16)^r,e+=String.fromCharCode(i);e=document.createTextNode(e),c.parentNode.replaceChild(e,c)}}}catch(u){}}();/* ]]&gt; */&lt;/script&gt;\nFormat settings, CABAC : Yes\nFormat settings, ReFrames : 4 frames\nCodec ID : avc1\nCodec ID/Info : Advanced Video Coding\nDuration : 2h 24mn\nBit rate mode : Variable\nBit rate : 2 000 Kbps\nMaximum bit rate : 9 890 Kbps\nWidth : 1 280 pixels\nHeight : 720 pixels\nDisplay aspect ratio : 16:9\nFrame rate mode : Constant\nFrame rate : 23.976 fps\nColor space : YUV\nChroma subsampling : 4:2:0\nBit depth : 8 bits\nScan type : Progressive\nBits/(Pixel*Frame) : 0.091\nStream size : 2.02 GiB (94%)\nTitle : Imported with GPAC 0.4.6-DEV (internal rev. 5)\nWriting library : x264 core 76 r1271 496d79d\nEncoded date : UTC 2010-07-21 09:14:29\nTagged date : UTC 2010-07-21 09:24:04\n\nAudio\nID : 2\nFormat : AAC\nFormat/Info : Advanced Audio Codec\nFormat version : Version 4\nFormat profile : LC\nFormat settings, SBR : Yes\nFormat settings, PS : No\nCodec ID : 40\nDuration : 2h 24mn\nBit rate mode : Variable\nBit rate : 124 Kbps\nMaximum bit rate : 176 Kbps\nChannel(s) : 6 channels\nChannel positions : Front: L C R, Side: L R, LFE\nSampling rate : 48.0 KHz\nStream size : 128 MiB (6%)\nEncoded date : UTC 2010-07-21 09:23:54\nTagged date : UTC 2010-07-21 09:24:04\n &lt;a href=&quot;\nhttp://img299.imageshack.us/img299/756/bhd3.jpg&quot; rel=&quot;nofollow&quot; target=&quot;_NEW&quot;&gt;\nhttp://img299.imageshack.us/img299/756/bhd3.jpg&lt;/a&gt;","torrent":{"xt":"urn:btih:9989eb122d4f3dd617995777c0663eb16830621d","amp;dn":"Black+Hawk+Down+BRRIP-mattyboi1995","amp;tr":["udp%3A%2F%2Ftracker.openbittorrent.com%3A80","udp%3A%2F%2Fopen.demonii.com%3A1337","udp%3A%2F%2Ftracker.coppersurfer.tk%3A6969","udp%3A%2F%2Fexodus.desync.com%3A6969"],"infoHash":"9989eb122d4f3dd617995777c0663eb16830621d","infoHashBuffer":{"type":"Buffer","data":[153,137,235,18,45,79,61,214,23,153,87,119,192,102,62,177,104,48,98,29]},"announce":[],"urlList":[]}}